<svg xmlns:xlink="http://www.w3.org/1999/xlink" xmlns="http://www.w3.org/2000/svg" class="icon icon-moon" width="24"  height="24" ><defs><symbol id="icon-moon" viewBox="0 0 24 24">
    <path d="M10.404.012c.858-.172 1.507.763 1.046 1.507-2.376 3.838-1.8 8.93 1.444 12.254 2.484 2.395 5.925 3.403 9.34 2.833a1 1 0 0 1 1.033 1.483c-.416.727-1.023 1.473-1.76 2.21a12.05 12.05 0 0 1-17.014 0c-4.69-4.69-4.69-12.324-.022-16.99l.272-.28A11.077 11.077 0 0 1 10.404.012zM8.69 2.67l-.22.106A9.19 9.19 0 0 0 5.908 4.7l-.21.216a10.05 10.05 0 0 0 .209 13.97 10.05 10.05 0 0 0 14.186 0l.123-.127-.212-.002a12.762 12.762 0 0 1-8.248-3.3l-.273-.256C8.2 11.816 7.187 6.95 8.665 2.737l.024-.068zm13.69.237c.94-.778 2.242.58 1.327 1.494l-.116.128c-.892 1.084-.853 3.488.116 4.457l.08.087c.778.94-.58 2.242-1.493 1.327l-.128-.116c-1.084-.892-3.488-.853-4.457.116l-.087.08c-.94.778-2.242-.58-1.327-1.494l.116-.128c.892-1.084.853-3.488-.116-4.457l-.08-.087c-.778-.94.58-2.242 1.494-1.327l.128.116c1.084.892 3.488.853 4.457-.116zM21.032 5.66l-.142.023a6.58 6.58 0 0 1-1.78 0l-.143-.023.023.144a6.58 6.58 0 0 1 0 1.78l-.023.143.143-.022a6.58 6.58 0 0 1 1.78 0l.142.022L21 7.582a6.58 6.58 0 0 1 0-1.78l.022-.144z"></path>
</symbol></defs>
                  <use xlink:href="#icon-moon" fill="#3F8CFF"></use>
                </svg>