<svg xmlns:xlink="http://www.w3.org/1999/xlink" xmlns="http://www.w3.org/2000/svg" class="icon icon-overview" width="21"  height="22" ><defs><symbol id="icon-overview" viewBox="0 0 21 22">
    <path d="M12.925 1.37a.75.75 0 0 1 .102 1.493l-.102.007H5.657c-2.455 0-4.034 1.626-4.125 4.16l-.004.233v8.082c0 2.602 1.483 4.284 3.906 4.38l.223.004h8.604c2.457 0 4.034-1.62 4.125-4.152l.004-.233v-7.04a.75.75 0 0 1 1.493-.102l.007.102v7.04c0 3.4-2.14 5.772-5.394 5.88l-.234.004H5.657c-3.33 0-5.525-2.3-5.625-5.644l-.004-.24v-8.08c0-3.392 2.142-5.78 5.394-5.9l.234-.004h7.268zM15.04 8.2a.75.75 0 0 1 .195.96l-.06.093-2.93 3.78a.75.75 0 0 1-.964.193l-.093-.062-2.82-2.214-2.53 3.3a.75.75 0 0 1-.959.198l-.093-.06a.75.75 0 0 1-.198-.959l.06-.093 2.993-3.9a.75.75 0 0 1 .965-.195l.093.062 2.82 2.215 2.467-3.183a.75.75 0 0 1 1.052-.134zM17.995.528a2.672 2.672 0 1 1 0 5.343 2.672 2.672 0 0 1 0-5.343zm0 1.5a1.172 1.172 0 1 0 0 2.345 1.172 1.172 0 0 0 0-2.345z"></path>
</symbol></defs>
<use xlink:href="#icon-overview"></use>
</svg>