<svg xmlns:xlink="http://www.w3.org/1999/xlink" xmlns="http://www.w3.org/2000/svg" class="icon icon-settings" width="20"  height="22" ><defs><symbol id="icon-settings" viewBox="0 0 20 22">
    <path d="M10.797.528c.72 0 1.41.29 1.91.807s.773 1.213.75 1.864l.01.153c.018.15.067.296.146.43.155.264.41.456.705.533s.612.033.9-.142l.166-.086a2.666 2.666 0 0 1 3.44 1.08l.622 1.08a.75.75 0 0 1 .043.088l.058.116a2.66 2.66 0 0 1-.897 3.32l-.26.164c-.137.095-.25.22-.336.37-.155.265-.197.58-.118.878s.273.55.568.72l.17.11c.512.358.882.886 1.043 1.49a2.66 2.66 0 0 1-.276 2.028l-.67 1.115-.1.157c-.787 1.13-2.314 1.477-3.48.804l-.138-.07c-.144-.064-.3-.1-.44-.104a1.144 1.144 0 0 0-.82.338 1.18 1.18 0 0 0-.339.857l-.008.178a2.663 2.663 0 0 1-2.654 2.444H9.538c-1.47 0-2.663-1.192-2.662-2.616l-.01-.153a1.117 1.117 0 0 0-.15-.437c-.152-.265-.403-.458-.698-.537s-.61-.037-.913.14l-.18.1a2.666 2.666 0 0 1-3.414-1.125L.87 15.494l-.086-.166c-.59-1.244-.127-2.74 1.045-3.416l.107-.067c.313-.217.5-.574.5-.956 0-.416-.222-.8-.61-1.024l-.157-.1a2.668 2.668 0 0 1-.775-3.531l.66-1.083a2.654 2.654 0 0 1 3.606-.995l.135.072c.138.063.288.097.432.098.636 0 1.154-.51 1.164-1.165v-.2A2.655 2.655 0 0 1 9.535.529zm0 1.5H9.543c-.307 0-.6.122-.818.34a1.14 1.14 0 0 0-.33.685l-.014.316A2.664 2.664 0 0 1 5.72 5.827a2.61 2.61 0 0 1-1.085-.253l-.195-.103a1.166 1.166 0 0 0-1.595.444l-.66 1.083c-.302.524-.15 1.192.317 1.518l.265.168a2.66 2.66 0 0 1 1.17 2.206c0 .875-.43 1.693-1.173 2.206l-.158.1c-.52.3-.722.952-.48 1.464l.057.1.64 1.102c.15.27.402.47.7.555a1.15 1.15 0 0 0 .765-.044l.1-.054c.61-.356 1.335-.453 2.017-.27s1.262.63 1.606 1.23c.185.312.302.66.348 1.06l.02.366a1.163 1.163 0 0 0 1.156 1.036h1.254c.606 0 1.1-.466 1.157-1.037l.006-.113c-.003-.708.276-1.388.777-1.89s1.18-.78 1.906-.777c.356.01.705.09 1.063.25l.32.164c.503.22 1.1.06 1.403-.374l.074-.115.654-1.1c.155-.265.197-.582.118-.878a1.14 1.14 0 0 0-.426-.63l-.114-.073a2.645 2.645 0 0 1-1.24-1.617 2.65 2.65 0 0 1 .268-2.015c.193-.337.46-.627.805-.867l.163-.103c.52-.304.72-.954.48-1.468l-.072-.138-.013-.03-.594-1.03a1.164 1.164 0 0 0-1.36-.532l-.113.045-.105.053a2.649 2.649 0 0 1-2.014.282 2.65 2.65 0 0 1-1.62-1.223 2.63 2.63 0 0 1-.348-1.058l-.013-.26c.01-.314-.11-.62-.33-.844s-.52-.352-.835-.352zm-.622 5.475a3.386 3.386 0 1 1-.002 6.77 3.386 3.386 0 0 1 .003-6.769zm0 1.5a1.885 1.885 0 1 0-.001 3.771 1.885 1.885 0 0 0 .001-3.771z"></path>
</symbol></defs>
                        <use xlink:href="#icon-settings"></use>
                      </svg>