<svg xmlns:xlink="http://www.w3.org/1999/xlink" xmlns="http://www.w3.org/2000/svg" class="icon icon-wallet" width="24"  height="21" ><defs><symbol id="icon-wallet" viewBox="0 0 22 20">
    <path d="M15.39.25a6 6 0 0 1 5.998 5.998v7.177a6 6 0 0 1-5.998 5.998H6.747A6 6 0 0 1 .75 13.425V6.248A6 6 0 0 1 6.748.25zm0 1.5H6.748A4.5 4.5 0 0 0 2.25 6.248v7.177a4.5 4.5 0 0 0 4.498 4.498h8.643a4.5 4.5 0 0 0 4.498-4.498l-.001-.28-3.298.001a3.443 3.443 0 0 1-3.442-3.44 3.442 3.442 0 0 1 3.253-3.436l.19-.005h3.297l.001-.015a4.5 4.5 0 0 0-4.286-4.493l-.212-.005zm4.497 6.013H16.59a1.943 1.943 0 0 0-1.943 1.94 1.946 1.946 0 0 0 1.8 1.936l.152.006 3.297-.001V7.763zm-2.84 1.13a.75.75 0 0 1 .102 1.493l-.102.007h-.312a.75.75 0 0 1-.102-1.493l.102-.007h.312zm-5.614-4.105a.75.75 0 0 1 .102 1.493l-.102.007h-5.4a.75.75 0 0 1-.102-1.493l.102-.007h5.4z"></path>
</symbol></defs>
                        <use xlink:href="#icon-wallet"></use>
                      </svg>